<svg xmlns="http://www.w3.org/2000/svg" viewBox="0 0 1000 420"><defs><linearGradient id="s" y2="1"><stop stop-color="#173f73"/><stop offset=".62" stop-color="#315a8c"/><stop offset="1" stop-color="#0b1c2f"/></linearGradient><linearGradient id="m" y2="1"><stop stop-color="#dce9f6"/><stop offset=".3" stop-color="#9eb8d5"/><stop offset="1" stop-color="#203853"/></linearGradient></defs><rect width="1000" height="420" fill="url(#s)"/><path d="M70 320L310 120l220 200z" fill="url(#m)"/><path d="M245 175l65-55 58 53-32-8-25 18-25-15z" fill="#f5fbff"/><path d="M0 328q160-58 320 0t320 0 360 5v87H0z" fill="#071523"/><g fill="#f79ac5" opacity=".75"><circle cx="690" cy="135" r="17"/><circle cx="730" cy="112" r="12"/><circle cx="765" cy="148" r="15"/><circle cx="820" cy="104" r="13"/><circle cx="865" cy="145" r="18"/><circle cx="905" cy="120" r="11"/></g><g stroke="#8b5f78" stroke-width="5" opacity=".55"><path d="M635 0q75 120 120 270"/><path d="M770 0q25 115 80 255"/></g></svg>